<svg width="951" height="1435" viewBox="0 0 951 1435" fill="none" xmlns="http://www.w3.org/2000/svg">
<path d="M228.524 500.277C288.727 441 355.628 383.329 437.381 361.996C519.134 340.664 618.922 366.554 658.469 441.226C681.445 484.62 680.967 536.904 671.337 585.054C661.707 633.205 643.66 679.304 632.972 727.225C615.011 807.754 617.636 893.83 583.457 968.924C549.528 1043.45 481.784 1099.03 406.378 1130.96C330.964 1162.88 248.075 1173.12 166.215 1175.22C62.6747 1177.88 -43.3554 1167.42 -137.605 1124.46C-231.847 1081.5 -313.276 1002.27 -340.406 902.317C-356.795 841.928 -354.507 745.603 -307.173 697.547C-270.881 660.696 -223.844 677.359 -179.068 685.872C-0.233399 719.84 108.531 618.46 228.532 500.297L228.524 500.277Z" stroke="#00857A" stroke-miterlimit="10"/>
<path d="M344.132 416.02C417.704 374.483 497.324 336.242 581.811 336.955C666.298 337.667 755.89 388.671 774.608 471.069C785.48 518.951 771.391 569.303 749.544 613.28C727.697 657.256 698.259 697.059 675.451 740.537C637.122 813.602 617.222 897.388 564.652 960.978C512.471 1024.09 432.583 1060.09 351.461 1071.26C270.333 1082.42 187.641 1070.71 108.062 1051.4C7.40959 1026.97 -92.2319 989.248 -172.027 923.209C-251.813 857.163 -309.778 759.451 -309.919 655.882C-310.003 593.309 -282.688 500.91 -224.465 466.852C-179.823 440.733 -138.754 469.079 -97.7452 488.969C66.0554 568.373 197.484 498.845 344.135 416.042L344.132 416.02Z" stroke="#00857A" stroke-miterlimit="10"/>
</svg>
